<mxfile host="app.diagrams.net" modified="2022-02-04T21:39:48.795Z" agent="5.0 (Windows)" etag="F1q4aj9O9DipzAKb2qeZ" version="16.5.2" type="github">
  <diagram id="C5RBs43oDa-KdzZeNtuy" name="Page-1">
    <mxGraphModel dx="1279" dy="564" grid="1" gridSize="10" guides="1" tooltips="1" connect="1" arrows="1" fold="1" page="1" pageScale="1" pageWidth="827" pageHeight="1169" math="0" shadow="0">
      <root>
        <mxCell id="WIyWlLk6GJQsqaUBKTNV-0" />
        <mxCell id="WIyWlLk6GJQsqaUBKTNV-1" parent="WIyWlLk6GJQsqaUBKTNV-0" />
        <mxCell id="29u7MaCq2pT_xQTBDj-X-0" value="Moeda5Cent" style="swimlane;fontStyle=1;align=center;verticalAlign=top;childLayout=stackLayout;horizontal=1;startSize=26;horizontalStack=0;resizeParent=1;resizeParentMax=0;resizeLast=0;collapsible=1;marginBottom=0;" vertex="1" parent="WIyWlLk6GJQsqaUBKTNV-1">
          <mxGeometry x="317" y="390" width="230" height="60" as="geometry" />
        </mxCell>
        <mxCell id="29u7MaCq2pT_xQTBDj-X-1" value="" style="line;strokeWidth=1;fillColor=none;align=left;verticalAlign=middle;spacingTop=-1;spacingLeft=3;spacingRight=3;rotatable=0;labelPosition=right;points=[];portConstraint=eastwest;" vertex="1" parent="29u7MaCq2pT_xQTBDj-X-0">
          <mxGeometry y="26" width="230" height="8" as="geometry" />
        </mxCell>
        <mxCell id="29u7MaCq2pT_xQTBDj-X-2" value="+ processaMoeda(diametro: Double): void&#xa;&#xa;&#xa;&#xa;&#xa;" style="text;strokeColor=none;fillColor=none;align=left;verticalAlign=top;spacingLeft=4;spacingRight=4;overflow=hidden;rotatable=0;points=[[0,0.5],[1,0.5]];portConstraint=eastwest;" vertex="1" parent="29u7MaCq2pT_xQTBDj-X-0">
          <mxGeometry y="34" width="230" height="26" as="geometry" />
        </mxCell>
        <mxCell id="29u7MaCq2pT_xQTBDj-X-7" value="MaquinaRefrigerante" style="swimlane;fontStyle=1;align=center;verticalAlign=top;childLayout=stackLayout;horizontal=1;startSize=26;horizontalStack=0;resizeParent=1;resizeParentMax=0;resizeLast=0;collapsible=1;marginBottom=0;" vertex="1" parent="WIyWlLk6GJQsqaUBKTNV-1">
          <mxGeometry x="27" y="150" width="160" height="34" as="geometry" />
        </mxCell>
        <mxCell id="29u7MaCq2pT_xQTBDj-X-8" value="" style="line;strokeWidth=1;fillColor=none;align=left;verticalAlign=middle;spacingTop=-1;spacingLeft=3;spacingRight=3;rotatable=0;labelPosition=right;points=[];portConstraint=eastwest;" vertex="1" parent="29u7MaCq2pT_xQTBDj-X-7">
          <mxGeometry y="26" width="160" height="8" as="geometry" />
        </mxCell>
        <mxCell id="29u7MaCq2pT_xQTBDj-X-9" value="Moeda10Cent" style="swimlane;fontStyle=1;align=center;verticalAlign=top;childLayout=stackLayout;horizontal=1;startSize=26;horizontalStack=0;resizeParent=1;resizeParentMax=0;resizeLast=0;collapsible=1;marginBottom=0;" vertex="1" parent="WIyWlLk6GJQsqaUBKTNV-1">
          <mxGeometry x="597" y="390" width="230" height="60" as="geometry" />
        </mxCell>
        <mxCell id="29u7MaCq2pT_xQTBDj-X-10" value="" style="line;strokeWidth=1;fillColor=none;align=left;verticalAlign=middle;spacingTop=-1;spacingLeft=3;spacingRight=3;rotatable=0;labelPosition=right;points=[];portConstraint=eastwest;" vertex="1" parent="29u7MaCq2pT_xQTBDj-X-9">
          <mxGeometry y="26" width="230" height="8" as="geometry" />
        </mxCell>
        <mxCell id="29u7MaCq2pT_xQTBDj-X-11" value="+ processaMoeda(diametro: Double): void&#xa;&#xa;&#xa;&#xa;&#xa;" style="text;strokeColor=none;fillColor=none;align=left;verticalAlign=top;spacingLeft=4;spacingRight=4;overflow=hidden;rotatable=0;points=[[0,0.5],[1,0.5]];portConstraint=eastwest;" vertex="1" parent="29u7MaCq2pT_xQTBDj-X-9">
          <mxGeometry y="34" width="230" height="26" as="geometry" />
        </mxCell>
        <mxCell id="29u7MaCq2pT_xQTBDj-X-12" value="Moeda1Cent" style="swimlane;fontStyle=1;align=center;verticalAlign=top;childLayout=stackLayout;horizontal=1;startSize=26;horizontalStack=0;resizeParent=1;resizeParentMax=0;resizeLast=0;collapsible=1;marginBottom=0;" vertex="1" parent="WIyWlLk6GJQsqaUBKTNV-1">
          <mxGeometry x="17" y="390" width="230" height="60" as="geometry" />
        </mxCell>
        <mxCell id="29u7MaCq2pT_xQTBDj-X-13" value="" style="line;strokeWidth=1;fillColor=none;align=left;verticalAlign=middle;spacingTop=-1;spacingLeft=3;spacingRight=3;rotatable=0;labelPosition=right;points=[];portConstraint=eastwest;" vertex="1" parent="29u7MaCq2pT_xQTBDj-X-12">
          <mxGeometry y="26" width="230" height="8" as="geometry" />
        </mxCell>
        <mxCell id="29u7MaCq2pT_xQTBDj-X-14" value="+ processaMoeda(diametro: Double): void&#xa;&#xa;&#xa;" style="text;strokeColor=none;fillColor=none;align=left;verticalAlign=top;spacingLeft=4;spacingRight=4;overflow=hidden;rotatable=0;points=[[0,0.5],[1,0.5]];portConstraint=eastwest;" vertex="1" parent="29u7MaCq2pT_xQTBDj-X-12">
          <mxGeometry y="34" width="230" height="26" as="geometry" />
        </mxCell>
        <mxCell id="29u7MaCq2pT_xQTBDj-X-15" value="" style="endArrow=block;endSize=16;endFill=0;html=1;rounded=0;exitX=0.5;exitY=0;exitDx=0;exitDy=0;entryX=0;entryY=1;entryDx=0;entryDy=0;" edge="1" parent="WIyWlLk6GJQsqaUBKTNV-1" source="29u7MaCq2pT_xQTBDj-X-12" target="29u7MaCq2pT_xQTBDj-X-19">
          <mxGeometry width="160" relative="1" as="geometry">
            <mxPoint x="-63" y="220" as="sourcePoint" />
            <mxPoint x="360" y="230" as="targetPoint" />
          </mxGeometry>
        </mxCell>
        <mxCell id="29u7MaCq2pT_xQTBDj-X-16" value="" style="endArrow=block;endSize=16;endFill=0;html=1;rounded=0;exitX=0.5;exitY=0;exitDx=0;exitDy=0;entryX=0.5;entryY=1;entryDx=0;entryDy=0;" edge="1" parent="WIyWlLk6GJQsqaUBKTNV-1" source="29u7MaCq2pT_xQTBDj-X-0" target="29u7MaCq2pT_xQTBDj-X-19">
          <mxGeometry width="160" relative="1" as="geometry">
            <mxPoint x="257" y="470" as="sourcePoint" />
            <mxPoint x="429" y="230" as="targetPoint" />
          </mxGeometry>
        </mxCell>
        <mxCell id="29u7MaCq2pT_xQTBDj-X-17" value="" style="endArrow=block;endSize=16;endFill=0;html=1;rounded=0;exitX=0.25;exitY=0;exitDx=0;exitDy=0;entryX=1;entryY=1;entryDx=0;entryDy=0;" edge="1" parent="WIyWlLk6GJQsqaUBKTNV-1" source="29u7MaCq2pT_xQTBDj-X-9" target="29u7MaCq2pT_xQTBDj-X-19">
          <mxGeometry width="160" relative="1" as="geometry">
            <mxPoint x="267" y="480" as="sourcePoint" />
            <mxPoint x="498" y="230" as="targetPoint" />
          </mxGeometry>
        </mxCell>
        <mxCell id="29u7MaCq2pT_xQTBDj-X-18" value="manda comando" style="html=1;verticalAlign=bottom;endArrow=block;rounded=0;entryX=0;entryY=0.75;entryDx=0;entryDy=0;exitX=0.5;exitY=1;exitDx=0;exitDy=0;" edge="1" parent="WIyWlLk6GJQsqaUBKTNV-1" target="29u7MaCq2pT_xQTBDj-X-19" source="29u7MaCq2pT_xQTBDj-X-7">
          <mxGeometry width="80" relative="1" as="geometry">
            <mxPoint x="87" y="210" as="sourcePoint" />
            <mxPoint x="291" y="210" as="targetPoint" />
            <Array as="points">
              <mxPoint x="107" y="215" />
            </Array>
          </mxGeometry>
        </mxCell>
        <mxCell id="29u7MaCq2pT_xQTBDj-X-19" value="&lt;p style=&quot;margin: 0px ; margin-top: 4px ; text-align: center&quot;&gt;&lt;i&gt;&amp;lt;&amp;lt;Abstract&amp;gt;&amp;gt;&lt;/i&gt;&lt;b&gt;&lt;br&gt;&lt;/b&gt;&lt;/p&gt;&lt;p style=&quot;margin: 0px ; margin-top: 4px ; text-align: center&quot;&gt;&lt;b&gt;Moeda&lt;/b&gt;&lt;br&gt;&lt;b&gt;&lt;/b&gt;&lt;/p&gt;&lt;hr size=&quot;1&quot;&gt;&lt;p style=&quot;margin: 0px ; margin-left: 4px&quot;&gt;- sucessor: Moeda&lt;br&gt;&lt;/p&gt;&lt;hr size=&quot;1&quot;&gt;+ &amp;lt;&amp;lt;abstract&amp;gt;&amp;gt; processaMoeda(diametro: Double): void&lt;br&gt;" style="verticalAlign=top;align=left;overflow=fill;fontSize=12;fontFamily=Helvetica;html=1;" vertex="1" parent="WIyWlLk6GJQsqaUBKTNV-1">
          <mxGeometry x="317" y="140" width="300" height="100" as="geometry" />
        </mxCell>
        <mxCell id="29u7MaCq2pT_xQTBDj-X-20" value="Moeda50Cent" style="swimlane;fontStyle=1;align=center;verticalAlign=top;childLayout=stackLayout;horizontal=1;startSize=26;horizontalStack=0;resizeParent=1;resizeParentMax=0;resizeLast=0;collapsible=1;marginBottom=0;" vertex="1" parent="WIyWlLk6GJQsqaUBKTNV-1">
          <mxGeometry x="187" y="490" width="227" height="60" as="geometry" />
        </mxCell>
        <mxCell id="29u7MaCq2pT_xQTBDj-X-21" value="" style="line;strokeWidth=1;fillColor=none;align=left;verticalAlign=middle;spacingTop=-1;spacingLeft=3;spacingRight=3;rotatable=0;labelPosition=right;points=[];portConstraint=eastwest;" vertex="1" parent="29u7MaCq2pT_xQTBDj-X-20">
          <mxGeometry y="26" width="227" height="8" as="geometry" />
        </mxCell>
        <mxCell id="29u7MaCq2pT_xQTBDj-X-22" value="+ processaMoeda(diametro: Double): void&#xa;&#xa;&#xa;&#xa;&#xa;" style="text;strokeColor=none;fillColor=none;align=left;verticalAlign=top;spacingLeft=4;spacingRight=4;overflow=hidden;rotatable=0;points=[[0,0.5],[1,0.5]];portConstraint=eastwest;" vertex="1" parent="29u7MaCq2pT_xQTBDj-X-20">
          <mxGeometry y="34" width="227" height="26" as="geometry" />
        </mxCell>
        <mxCell id="29u7MaCq2pT_xQTBDj-X-23" value="Moeda1Real" style="swimlane;fontStyle=1;align=center;verticalAlign=top;childLayout=stackLayout;horizontal=1;startSize=26;horizontalStack=0;resizeParent=1;resizeParentMax=0;resizeLast=0;collapsible=1;marginBottom=0;" vertex="1" parent="WIyWlLk6GJQsqaUBKTNV-1">
          <mxGeometry x="467" y="490" width="230" height="60" as="geometry" />
        </mxCell>
        <mxCell id="29u7MaCq2pT_xQTBDj-X-24" value="" style="line;strokeWidth=1;fillColor=none;align=left;verticalAlign=middle;spacingTop=-1;spacingLeft=3;spacingRight=3;rotatable=0;labelPosition=right;points=[];portConstraint=eastwest;" vertex="1" parent="29u7MaCq2pT_xQTBDj-X-23">
          <mxGeometry y="26" width="230" height="8" as="geometry" />
        </mxCell>
        <mxCell id="29u7MaCq2pT_xQTBDj-X-25" value="+ processaMoeda(diametro: Double): void&#xa;&#xa;&#xa;&#xa;&#xa;" style="text;strokeColor=none;fillColor=none;align=left;verticalAlign=top;spacingLeft=4;spacingRight=4;overflow=hidden;rotatable=0;points=[[0,0.5],[1,0.5]];portConstraint=eastwest;" vertex="1" parent="29u7MaCq2pT_xQTBDj-X-23">
          <mxGeometry y="34" width="230" height="26" as="geometry" />
        </mxCell>
        <mxCell id="29u7MaCq2pT_xQTBDj-X-26" value="" style="endArrow=block;endSize=16;endFill=0;html=1;rounded=0;exitX=0.25;exitY=0;exitDx=0;exitDy=0;entryX=0.25;entryY=1;entryDx=0;entryDy=0;" edge="1" parent="WIyWlLk6GJQsqaUBKTNV-1" source="29u7MaCq2pT_xQTBDj-X-20" target="29u7MaCq2pT_xQTBDj-X-19">
          <mxGeometry width="160" relative="1" as="geometry">
            <mxPoint x="258" y="460" as="sourcePoint" />
            <mxPoint x="303" y="310" as="targetPoint" />
          </mxGeometry>
        </mxCell>
        <mxCell id="29u7MaCq2pT_xQTBDj-X-27" value="" style="endArrow=block;endSize=16;endFill=0;html=1;rounded=0;exitX=0.5;exitY=0;exitDx=0;exitDy=0;entryX=0.75;entryY=1;entryDx=0;entryDy=0;" edge="1" parent="WIyWlLk6GJQsqaUBKTNV-1" source="29u7MaCq2pT_xQTBDj-X-23" target="29u7MaCq2pT_xQTBDj-X-19">
          <mxGeometry width="160" relative="1" as="geometry">
            <mxPoint x="664.5" y="390" as="sourcePoint" />
            <mxPoint x="552" y="250" as="targetPoint" />
          </mxGeometry>
        </mxCell>
        <mxCell id="29u7MaCq2pT_xQTBDj-X-30" value="" style="endArrow=diamondThin;endFill=0;endSize=24;html=1;rounded=0;entryX=0.75;entryY=0;entryDx=0;entryDy=0;exitX=1;exitY=0.25;exitDx=0;exitDy=0;" edge="1" parent="WIyWlLk6GJQsqaUBKTNV-1" source="29u7MaCq2pT_xQTBDj-X-19" target="29u7MaCq2pT_xQTBDj-X-19">
          <mxGeometry width="160" relative="1" as="geometry">
            <mxPoint x="690" y="170" as="sourcePoint" />
            <mxPoint x="600" y="90" as="targetPoint" />
            <Array as="points">
              <mxPoint x="660" y="165" />
              <mxPoint x="660" y="100" />
              <mxPoint x="617" y="100" />
              <mxPoint x="542" y="100" />
            </Array>
          </mxGeometry>
        </mxCell>
        <mxCell id="29u7MaCq2pT_xQTBDj-X-31" value="sucessor" style="text;html=1;align=center;verticalAlign=middle;resizable=0;points=[];autosize=1;strokeColor=none;fillColor=none;" vertex="1" parent="WIyWlLk6GJQsqaUBKTNV-1">
          <mxGeometry x="660" y="120" width="60" height="20" as="geometry" />
        </mxCell>
      </root>
    </mxGraphModel>
  </diagram>
</mxfile>
